<svg xmlns="http://www.w3.org/2000/svg" viewBox="0 0 64 64">
  <defs>
    <linearGradient id="bg" x1="8" y1="8" x2="56" y2="56" gradientUnits="userSpaceOnUse">
      <stop offset="0%" stop-color="#06131A"/>
      <stop offset="100%" stop-color="#0B1E2A"/>
    </linearGradient>
    <linearGradient id="line" x1="17" y1="17" x2="47" y2="47" gradientUnits="userSpaceOnUse">
      <stop offset="0%" stop-color="#5EEAD4"/>
      <stop offset="50%" stop-color="#22D3EE"/>
      <stop offset="100%" stop-color="#60A5FA"/>
    </linearGradient>
  </defs>
  <rect width="64" height="64" rx="16" fill="url(#bg)"/>
  <path d="M18 20c4-5 8-7 14-7 7 0 13 3 18 9" stroke="url(#line)" stroke-width="4.5" stroke-linecap="round"/>
  <path d="M16 44c4 5 9 7 15 7 7 0 13-3 18-9" stroke="url(#line)" stroke-width="4.5" stroke-linecap="round"/>
  <path d="M22 24h19c3 0 5 2 5 4 0 2-1 4-3 5L27 45" fill="none" stroke="#CFFAFE" stroke-width="5" stroke-linecap="round" stroke-linejoin="round"/>
  <path d="M19 39l4 4 5-5" fill="none" stroke="#D1FAE5" stroke-width="3.5" stroke-linecap="round" stroke-linejoin="round"/>
</svg>
